<mxfile host="Electron" agent="Mozilla/5.0 (Windows NT 10.0; Win64; x64) AppleWebKit/537.36 (KHTML, like Gecko) draw.io/26.0.4 Chrome/128.0.6613.186 Electron/32.2.5 Safari/537.36" version="26.0.4">
  <diagram name="Page-1" id="5PxwipH_pp4p8Q9X1VUQ">
    <mxGraphModel dx="1518" dy="1900" grid="1" gridSize="10" guides="1" tooltips="1" connect="1" arrows="1" fold="1" page="1" pageScale="1" pageWidth="1654" pageHeight="1169" math="0" shadow="0">
      <root>
        <mxCell id="0" />
        <mxCell id="1" parent="0" />
        <mxCell id="ZwwRZ2UjdaUJHDhx5dXM-2" value="" style="rounded=0;whiteSpace=wrap;html=1;rotation=90;" vertex="1" parent="1">
          <mxGeometry x="370" y="120" width="160" height="110" as="geometry" />
        </mxCell>
        <mxCell id="ZwwRZ2UjdaUJHDhx5dXM-18" style="edgeStyle=orthogonalEdgeStyle;rounded=0;orthogonalLoop=1;jettySize=auto;html=1;exitX=1;exitY=0.5;exitDx=0;exitDy=0;entryX=0;entryY=0.5;entryDx=0;entryDy=0;" edge="1" parent="1" source="ZwwRZ2UjdaUJHDhx5dXM-3" target="ZwwRZ2UjdaUJHDhx5dXM-16">
          <mxGeometry relative="1" as="geometry" />
        </mxCell>
        <mxCell id="ZwwRZ2UjdaUJHDhx5dXM-3" value="&lt;span style=&quot;font-size: 18px;&quot;&gt;Key Scheduling&lt;/span&gt;" style="text;html=1;align=center;verticalAlign=middle;whiteSpace=wrap;rounded=0;" vertex="1" parent="1">
          <mxGeometry x="395" y="140" width="110" height="60" as="geometry" />
        </mxCell>
        <mxCell id="ZwwRZ2UjdaUJHDhx5dXM-7" style="edgeStyle=orthogonalEdgeStyle;rounded=0;orthogonalLoop=1;jettySize=auto;html=1;exitX=1;exitY=0.5;exitDx=0;exitDy=0;entryX=0.25;entryY=1;entryDx=0;entryDy=0;" edge="1" parent="1" source="ZwwRZ2UjdaUJHDhx5dXM-4" target="ZwwRZ2UjdaUJHDhx5dXM-2">
          <mxGeometry relative="1" as="geometry" />
        </mxCell>
        <mxCell id="ZwwRZ2UjdaUJHDhx5dXM-4" value="des_key_in [63:0]" style="text;html=1;align=center;verticalAlign=middle;whiteSpace=wrap;rounded=0;" vertex="1" parent="1">
          <mxGeometry x="220" y="120" width="100" height="30" as="geometry" />
        </mxCell>
        <mxCell id="ZwwRZ2UjdaUJHDhx5dXM-8" style="edgeStyle=orthogonalEdgeStyle;rounded=0;orthogonalLoop=1;jettySize=auto;html=1;exitX=1;exitY=0.5;exitDx=0;exitDy=0;entryX=0;entryY=0.5;entryDx=0;entryDy=0;" edge="1" parent="1" source="ZwwRZ2UjdaUJHDhx5dXM-5" target="ZwwRZ2UjdaUJHDhx5dXM-3">
          <mxGeometry relative="1" as="geometry" />
        </mxCell>
        <mxCell id="ZwwRZ2UjdaUJHDhx5dXM-5" value="clk" style="text;html=1;align=center;verticalAlign=middle;whiteSpace=wrap;rounded=0;" vertex="1" parent="1">
          <mxGeometry x="280" y="155" width="40" height="30" as="geometry" />
        </mxCell>
        <mxCell id="ZwwRZ2UjdaUJHDhx5dXM-9" style="edgeStyle=orthogonalEdgeStyle;rounded=0;orthogonalLoop=1;jettySize=auto;html=1;exitX=1;exitY=0.5;exitDx=0;exitDy=0;entryX=1;entryY=0.5;entryDx=0;entryDy=0;" edge="1" parent="1" source="ZwwRZ2UjdaUJHDhx5dXM-6" target="ZwwRZ2UjdaUJHDhx5dXM-2">
          <mxGeometry relative="1" as="geometry" />
        </mxCell>
        <mxCell id="ZwwRZ2UjdaUJHDhx5dXM-6" value="rst_n" style="text;html=1;align=center;verticalAlign=middle;whiteSpace=wrap;rounded=0;" vertex="1" parent="1">
          <mxGeometry x="260" y="260" width="50" height="30" as="geometry" />
        </mxCell>
        <mxCell id="ZwwRZ2UjdaUJHDhx5dXM-15" style="edgeStyle=orthogonalEdgeStyle;rounded=0;orthogonalLoop=1;jettySize=auto;html=1;exitX=1;exitY=0.5;exitDx=0;exitDy=0;entryX=0;entryY=0.25;entryDx=0;entryDy=0;" edge="1" parent="1" source="ZwwRZ2UjdaUJHDhx5dXM-10" target="ZwwRZ2UjdaUJHDhx5dXM-2">
          <mxGeometry relative="1" as="geometry" />
        </mxCell>
        <mxCell id="ZwwRZ2UjdaUJHDhx5dXM-10" value="key_process" style="text;html=1;align=center;verticalAlign=middle;whiteSpace=wrap;rounded=0;" vertex="1" parent="1">
          <mxGeometry x="220" y="-30" width="100" height="30" as="geometry" />
        </mxCell>
        <mxCell id="ZwwRZ2UjdaUJHDhx5dXM-14" style="edgeStyle=orthogonalEdgeStyle;rounded=0;orthogonalLoop=1;jettySize=auto;html=1;exitX=1;exitY=0.5;exitDx=0;exitDy=0;" edge="1" parent="1" source="ZwwRZ2UjdaUJHDhx5dXM-11" target="ZwwRZ2UjdaUJHDhx5dXM-2">
          <mxGeometry relative="1" as="geometry" />
        </mxCell>
        <mxCell id="ZwwRZ2UjdaUJHDhx5dXM-11" value="shift_1" style="text;html=1;align=center;verticalAlign=middle;whiteSpace=wrap;rounded=0;" vertex="1" parent="1">
          <mxGeometry x="220" width="100" height="30" as="geometry" />
        </mxCell>
        <mxCell id="ZwwRZ2UjdaUJHDhx5dXM-13" style="edgeStyle=orthogonalEdgeStyle;rounded=0;orthogonalLoop=1;jettySize=auto;html=1;exitX=1;exitY=0.5;exitDx=0;exitDy=0;entryX=0;entryY=0.75;entryDx=0;entryDy=0;" edge="1" parent="1" source="ZwwRZ2UjdaUJHDhx5dXM-12" target="ZwwRZ2UjdaUJHDhx5dXM-2">
          <mxGeometry relative="1" as="geometry" />
        </mxCell>
        <mxCell id="ZwwRZ2UjdaUJHDhx5dXM-12" value="rkey_sel" style="text;html=1;align=center;verticalAlign=middle;whiteSpace=wrap;rounded=0;" vertex="1" parent="1">
          <mxGeometry x="220" y="30" width="100" height="30" as="geometry" />
        </mxCell>
        <mxCell id="ZwwRZ2UjdaUJHDhx5dXM-16" value="key_round [48:0]" style="text;html=1;align=center;verticalAlign=middle;whiteSpace=wrap;rounded=0;" vertex="1" parent="1">
          <mxGeometry x="590" y="155" width="100" height="30" as="geometry" />
        </mxCell>
        <mxCell id="ZwwRZ2UjdaUJHDhx5dXM-29" style="edgeStyle=orthogonalEdgeStyle;rounded=0;orthogonalLoop=1;jettySize=auto;html=1;exitX=1;exitY=0;exitDx=0;exitDy=0;entryX=0.25;entryY=1;entryDx=0;entryDy=0;" edge="1" parent="1" source="ZwwRZ2UjdaUJHDhx5dXM-19" target="ZwwRZ2UjdaUJHDhx5dXM-20">
          <mxGeometry relative="1" as="geometry" />
        </mxCell>
        <mxCell id="ZwwRZ2UjdaUJHDhx5dXM-30" style="edgeStyle=orthogonalEdgeStyle;rounded=0;orthogonalLoop=1;jettySize=auto;html=1;exitX=1;exitY=1;exitDx=0;exitDy=0;entryX=0.75;entryY=1;entryDx=0;entryDy=0;" edge="1" parent="1" source="ZwwRZ2UjdaUJHDhx5dXM-19" target="ZwwRZ2UjdaUJHDhx5dXM-20">
          <mxGeometry relative="1" as="geometry" />
        </mxCell>
        <mxCell id="ZwwRZ2UjdaUJHDhx5dXM-19" value="" style="ellipse;whiteSpace=wrap;html=1;aspect=fixed;" vertex="1" parent="1">
          <mxGeometry x="273.75" y="440" width="80" height="80" as="geometry" />
        </mxCell>
        <mxCell id="ZwwRZ2UjdaUJHDhx5dXM-44" style="edgeStyle=orthogonalEdgeStyle;rounded=0;orthogonalLoop=1;jettySize=auto;html=1;exitX=0.5;exitY=0;exitDx=0;exitDy=0;entryX=0;entryY=0.5;entryDx=0;entryDy=0;" edge="1" parent="1" source="ZwwRZ2UjdaUJHDhx5dXM-20" target="ZwwRZ2UjdaUJHDhx5dXM-21">
          <mxGeometry relative="1" as="geometry" />
        </mxCell>
        <mxCell id="ZwwRZ2UjdaUJHDhx5dXM-20" value="" style="rounded=0;whiteSpace=wrap;html=1;rotation=90;" vertex="1" parent="1">
          <mxGeometry x="457.5" y="437.5" width="115" height="85" as="geometry" />
        </mxCell>
        <mxCell id="ZwwRZ2UjdaUJHDhx5dXM-47" style="edgeStyle=orthogonalEdgeStyle;rounded=0;orthogonalLoop=1;jettySize=auto;html=1;exitX=1;exitY=0.5;exitDx=0;exitDy=0;entryX=0;entryY=0.5;entryDx=0;entryDy=0;" edge="1" parent="1" source="ZwwRZ2UjdaUJHDhx5dXM-21" target="ZwwRZ2UjdaUJHDhx5dXM-46">
          <mxGeometry relative="1" as="geometry" />
        </mxCell>
        <mxCell id="ZwwRZ2UjdaUJHDhx5dXM-21" value="" style="ellipse;whiteSpace=wrap;html=1;aspect=fixed;" vertex="1" parent="1">
          <mxGeometry x="680" y="440" width="80" height="80" as="geometry" />
        </mxCell>
        <mxCell id="ZwwRZ2UjdaUJHDhx5dXM-22" value="&lt;font style=&quot;font-size: 18px;&quot;&gt;PC_1&lt;/font&gt;" style="text;html=1;align=center;verticalAlign=middle;whiteSpace=wrap;rounded=0;" vertex="1" parent="1">
          <mxGeometry x="283.75" y="465" width="60" height="30" as="geometry" />
        </mxCell>
        <mxCell id="ZwwRZ2UjdaUJHDhx5dXM-23" value="&lt;font style=&quot;font-size: 18px;&quot;&gt;PC_2&lt;/font&gt;" style="text;html=1;align=center;verticalAlign=middle;whiteSpace=wrap;rounded=0;" vertex="1" parent="1">
          <mxGeometry x="690" y="465" width="60" height="30" as="geometry" />
        </mxCell>
        <mxCell id="ZwwRZ2UjdaUJHDhx5dXM-24" value="&lt;font style=&quot;font-size: 18px;&quot;&gt;Left Shift&lt;/font&gt;" style="text;html=1;align=center;verticalAlign=middle;whiteSpace=wrap;rounded=0;" vertex="1" parent="1">
          <mxGeometry x="485" y="460" width="60" height="30" as="geometry" />
        </mxCell>
        <mxCell id="ZwwRZ2UjdaUJHDhx5dXM-26" style="edgeStyle=orthogonalEdgeStyle;rounded=0;orthogonalLoop=1;jettySize=auto;html=1;exitX=1;exitY=0.5;exitDx=0;exitDy=0;entryX=0;entryY=0.5;entryDx=0;entryDy=0;" edge="1" parent="1" source="ZwwRZ2UjdaUJHDhx5dXM-25" target="ZwwRZ2UjdaUJHDhx5dXM-19">
          <mxGeometry relative="1" as="geometry" />
        </mxCell>
        <mxCell id="ZwwRZ2UjdaUJHDhx5dXM-25" value="des_key_in [63:0]" style="text;html=1;align=center;verticalAlign=middle;whiteSpace=wrap;rounded=0;" vertex="1" parent="1">
          <mxGeometry x="100" y="465" width="100" height="30" as="geometry" />
        </mxCell>
        <mxCell id="ZwwRZ2UjdaUJHDhx5dXM-32" value="c0 [27:0]" style="text;html=1;align=center;verticalAlign=middle;whiteSpace=wrap;rounded=0;" vertex="1" parent="1">
          <mxGeometry x="353.75" y="420" width="100" height="30" as="geometry" />
        </mxCell>
        <mxCell id="ZwwRZ2UjdaUJHDhx5dXM-33" value="d0 [27:0]" style="text;html=1;align=center;verticalAlign=middle;whiteSpace=wrap;rounded=0;" vertex="1" parent="1">
          <mxGeometry x="353.75" y="480" width="100" height="30" as="geometry" />
        </mxCell>
        <mxCell id="ZwwRZ2UjdaUJHDhx5dXM-37" style="edgeStyle=orthogonalEdgeStyle;rounded=0;orthogonalLoop=1;jettySize=auto;html=1;exitX=1;exitY=0.5;exitDx=0;exitDy=0;entryX=0;entryY=0.25;entryDx=0;entryDy=0;" edge="1" parent="1" source="ZwwRZ2UjdaUJHDhx5dXM-34" target="ZwwRZ2UjdaUJHDhx5dXM-20">
          <mxGeometry relative="1" as="geometry" />
        </mxCell>
        <mxCell id="ZwwRZ2UjdaUJHDhx5dXM-34" value="key_process" style="text;html=1;align=center;verticalAlign=middle;whiteSpace=wrap;rounded=0;" vertex="1" parent="1">
          <mxGeometry x="100" y="310" width="100" height="30" as="geometry" />
        </mxCell>
        <mxCell id="ZwwRZ2UjdaUJHDhx5dXM-38" style="edgeStyle=orthogonalEdgeStyle;rounded=0;orthogonalLoop=1;jettySize=auto;html=1;exitX=1;exitY=0.5;exitDx=0;exitDy=0;entryX=0;entryY=0.5;entryDx=0;entryDy=0;" edge="1" parent="1" source="ZwwRZ2UjdaUJHDhx5dXM-35" target="ZwwRZ2UjdaUJHDhx5dXM-20">
          <mxGeometry relative="1" as="geometry" />
        </mxCell>
        <mxCell id="ZwwRZ2UjdaUJHDhx5dXM-35" value="shift_1" style="text;html=1;align=center;verticalAlign=middle;whiteSpace=wrap;rounded=0;" vertex="1" parent="1">
          <mxGeometry x="100" y="340" width="100" height="30" as="geometry" />
        </mxCell>
        <mxCell id="ZwwRZ2UjdaUJHDhx5dXM-39" style="edgeStyle=orthogonalEdgeStyle;rounded=0;orthogonalLoop=1;jettySize=auto;html=1;exitX=1;exitY=0.5;exitDx=0;exitDy=0;entryX=0;entryY=0.75;entryDx=0;entryDy=0;" edge="1" parent="1" source="ZwwRZ2UjdaUJHDhx5dXM-36" target="ZwwRZ2UjdaUJHDhx5dXM-20">
          <mxGeometry relative="1" as="geometry" />
        </mxCell>
        <mxCell id="ZwwRZ2UjdaUJHDhx5dXM-36" value="rkey_sel" style="text;html=1;align=center;verticalAlign=middle;whiteSpace=wrap;rounded=0;" vertex="1" parent="1">
          <mxGeometry x="100" y="370" width="100" height="30" as="geometry" />
        </mxCell>
        <mxCell id="ZwwRZ2UjdaUJHDhx5dXM-41" style="edgeStyle=orthogonalEdgeStyle;rounded=0;orthogonalLoop=1;jettySize=auto;html=1;exitX=1;exitY=0.5;exitDx=0;exitDy=0;" edge="1" parent="1" source="ZwwRZ2UjdaUJHDhx5dXM-40" target="ZwwRZ2UjdaUJHDhx5dXM-20">
          <mxGeometry relative="1" as="geometry">
            <Array as="points">
              <mxPoint x="220" y="507" />
              <mxPoint x="220" y="530" />
              <mxPoint x="450" y="530" />
              <mxPoint x="450" y="480" />
            </Array>
          </mxGeometry>
        </mxCell>
        <mxCell id="ZwwRZ2UjdaUJHDhx5dXM-40" value="clk" style="text;html=1;align=center;verticalAlign=middle;whiteSpace=wrap;rounded=0;" vertex="1" parent="1">
          <mxGeometry x="120" y="492.5" width="40" height="30" as="geometry" />
        </mxCell>
        <mxCell id="ZwwRZ2UjdaUJHDhx5dXM-43" style="edgeStyle=orthogonalEdgeStyle;rounded=0;orthogonalLoop=1;jettySize=auto;html=1;exitX=1;exitY=0.5;exitDx=0;exitDy=0;entryX=1;entryY=0.5;entryDx=0;entryDy=0;" edge="1" parent="1" source="ZwwRZ2UjdaUJHDhx5dXM-42" target="ZwwRZ2UjdaUJHDhx5dXM-20">
          <mxGeometry relative="1" as="geometry">
            <Array as="points">
              <mxPoint x="200" y="538" />
              <mxPoint x="200" y="558" />
              <mxPoint x="515" y="558" />
            </Array>
          </mxGeometry>
        </mxCell>
        <mxCell id="ZwwRZ2UjdaUJHDhx5dXM-42" value="rst_n" style="text;html=1;align=center;verticalAlign=middle;whiteSpace=wrap;rounded=0;" vertex="1" parent="1">
          <mxGeometry x="115" y="522.5" width="50" height="30" as="geometry" />
        </mxCell>
        <mxCell id="ZwwRZ2UjdaUJHDhx5dXM-45" value="cn_dn [55:0]" style="text;html=1;align=center;verticalAlign=middle;whiteSpace=wrap;rounded=0;" vertex="1" parent="1">
          <mxGeometry x="572.5" y="450" width="100" height="30" as="geometry" />
        </mxCell>
        <mxCell id="ZwwRZ2UjdaUJHDhx5dXM-46" value="round_key [48:0]" style="text;html=1;align=center;verticalAlign=middle;whiteSpace=wrap;rounded=0;" vertex="1" parent="1">
          <mxGeometry x="860" y="465" width="100" height="30" as="geometry" />
        </mxCell>
      </root>
    </mxGraphModel>
  </diagram>
</mxfile>
